<svg width="596" height="34" viewBox="0 0 596 34" fill="none" xmlns="http://www.w3.org/2000/svg">
<path d="M0.0903596 15.56C0.0903596 13.568 0.42636 11.792 1.09836 10.232C1.77036 8.648 2.68236 7.316 3.83436 6.236C4.98636 5.156 6.33036 4.328 7.86636 3.752C9.40236 3.176 11.0344 2.888 12.7624 2.888C14.4904 2.888 16.1224 3.176 17.6584 3.752C19.1944 4.328 20.5384 5.156 21.6904 6.236C22.8424 7.316 23.7544 8.648 24.4264 10.232C25.0984 11.792 25.4344 13.568 25.4344 15.56C25.4344 17.552 25.0984 19.34 24.4264 20.924C23.7544 22.484 22.8424 23.804 21.6904 24.884C20.5384 25.964 19.1944 26.792 17.6584 27.368C16.1224 27.944 14.4904 28.232 12.7624 28.232C10.8424 28.232 9.10236 27.944 7.54236 27.368C5.98236 26.792 4.65036 25.964 3.54636 24.884C2.44236 23.804 1.59036 22.484 0.99036 20.924C0.39036 19.34 0.0903596 17.552 0.0903596 15.56ZM2.61036 15.56C2.61036 17.216 2.87436 18.692 3.40236 19.988C3.93036 21.26 4.65036 22.328 5.56236 23.192C6.47436 24.056 7.54236 24.716 8.76636 25.172C10.0144 25.628 11.3464 25.856 12.7624 25.856C14.1784 25.856 15.4984 25.628 16.7224 25.172C17.9704 24.716 19.0504 24.056 19.9624 23.192C20.8744 22.328 21.5944 21.26 22.1224 19.988C22.6504 18.692 22.9144 17.216 22.9144 15.56C22.9144 13.904 22.6504 12.44 22.1224 11.168C21.5944 9.872 20.8744 8.792 19.9624 7.928C19.0504 7.064 17.9704 6.404 16.7224 5.948C15.4984 5.492 14.1784 5.264 12.7624 5.264C11.3464 5.264 10.0144 5.492 8.76636 5.948C7.54236 6.404 6.47436 7.064 5.56236 7.928C4.65036 8.792 3.93036 9.872 3.40236 11.168C2.87436 12.44 2.61036 13.904 2.61036 15.56ZM16.9384 21.428C16.3864 21.74 15.7624 21.98 15.0664 22.148C14.3944 22.316 13.6024 22.4 12.6904 22.4C10.7464 22.4 9.25836 21.788 8.22636 20.564C7.21836 19.34 6.71436 17.672 6.71436 15.56C6.71436 13.376 7.25436 11.696 8.33436 10.52C9.43836 9.32 10.8904 8.72 12.6904 8.72C13.1224 8.72 13.5064 8.744 13.8424 8.792C14.2024 8.84 14.5264 8.912 14.8144 9.008C15.1264 9.08 15.4264 9.176 15.7144 9.296C16.0024 9.416 16.3264 9.548 16.6864 9.692L15.7504 11.888C15.2224 11.624 14.7184 11.444 14.2384 11.348C13.7584 11.252 13.3504 11.204 13.0144 11.204C12.0064 11.204 11.1784 11.516 10.5304 12.14C9.90636 12.764 9.59436 13.904 9.59436 15.56C9.59436 16.952 9.90636 18.032 10.5304 18.8C11.1544 19.544 12.0784 19.928 13.3024 19.952C14.4304 19.952 15.3904 19.736 16.1824 19.304L16.9384 21.428ZM54.4599 5.444C54.4599 6.692 54.1119 8.048 53.4159 9.512C52.7199 10.976 51.8319 12.452 50.7519 13.94C49.6959 15.404 48.5319 16.844 47.2599 18.26C45.9879 19.652 44.7639 20.912 43.5879 22.04L41.6079 23.588V23.732L43.8399 23.336H51.2199L50.7159 26H37.0719L37.2879 24.956C37.8879 24.356 38.6559 23.612 39.5919 22.724C40.5519 21.812 41.5599 20.816 42.6159 19.736C43.6959 18.632 44.7759 17.48 45.8559 16.28C46.9359 15.08 47.9079 13.88 48.7719 12.68C49.6599 11.456 50.3559 10.28 50.8599 9.152C51.3879 8.024 51.6519 6.98 51.6519 6.02C51.6519 5.564 51.6039 5.144 51.5079 4.76C51.4119 4.376 51.2559 4.052 51.0399 3.788C50.8239 3.5 50.5119 3.284 50.1039 3.14C49.6959 2.972 49.1679 2.888 48.5199 2.888C47.6559 2.888 46.8159 3.068 45.9999 3.428C45.1839 3.764 44.3199 4.232 43.4079 4.832L42.6519 2.672C43.8039 1.832 44.9079 1.244 45.9639 0.907999C47.0199 0.547999 48.1719 0.368 49.4199 0.368C51.0999 0.368 52.3599 0.847999 53.1999 1.808C54.0399 2.744 54.4599 3.956 54.4599 5.444ZM56.675 18.116C56.675 15.596 56.939 13.256 57.467 11.096C58.019 8.912 58.763 7.028 59.699 5.444C60.659 3.86 61.799 2.624 63.119 1.736C64.439 0.823999 65.891 0.368 67.475 0.368C69.515 0.368 71.087 1.028 72.191 2.348C73.295 3.668 73.847 5.768 73.847 8.648C73.847 10.808 73.607 12.944 73.127 15.056C72.671 17.168 71.987 19.076 71.075 20.78C70.187 22.46 69.083 23.828 67.763 24.884C66.443 25.916 64.919 26.432 63.191 26.432C61.967 26.432 60.935 26.204 60.095 25.748C59.279 25.268 58.607 24.644 58.079 23.876C57.575 23.084 57.215 22.196 56.999 21.212C56.783 20.204 56.675 19.172 56.675 18.116ZM59.483 17.972C59.483 19.196 59.603 20.204 59.843 20.996C60.083 21.764 60.395 22.364 60.779 22.796C61.187 23.204 61.631 23.492 62.111 23.66C62.615 23.828 63.119 23.912 63.623 23.912C64.703 23.912 65.699 23.492 66.611 22.652C67.523 21.788 68.303 20.648 68.951 19.232C69.599 17.816 70.103 16.22 70.463 14.444C70.847 12.668 71.039 10.856 71.039 9.008C71.039 6.944 70.751 5.408 70.175 4.4C69.599 3.392 68.555 2.888 67.043 2.888C66.083 2.888 65.147 3.26 64.235 4.004C63.347 4.748 62.543 5.792 61.823 7.136C61.127 8.48 60.563 10.076 60.131 11.924C59.699 13.772 59.483 15.788 59.483 17.972ZM91.8662 5.444C91.8662 6.692 91.5182 8.048 90.8222 9.512C90.1262 10.976 89.2382 12.452 88.1582 13.94C87.1022 15.404 85.9382 16.844 84.6662 18.26C83.3942 19.652 82.1702 20.912 80.9942 22.04L79.0142 23.588V23.732L81.2462 23.336H88.6262L88.1222 26H74.4782L74.6942 24.956C75.2942 24.356 76.0622 23.612 76.9982 22.724C77.9582 21.812 78.9662 20.816 80.0222 19.736C81.1022 18.632 82.1822 17.48 83.2622 16.28C84.3422 15.08 85.3142 13.88 86.1782 12.68C87.0662 11.456 87.7622 10.28 88.2662 9.152C88.7942 8.024 89.0582 6.98 89.0582 6.02C89.0582 5.564 89.0102 5.144 88.9142 4.76C88.8182 4.376 88.6622 4.052 88.4462 3.788C88.2302 3.5 87.9182 3.284 87.5102 3.14C87.1022 2.972 86.5742 2.888 85.9262 2.888C85.0622 2.888 84.2222 3.068 83.4062 3.428C82.5902 3.764 81.7262 4.232 80.8142 4.832L80.0582 2.672C81.2102 1.832 82.3142 1.244 83.3702 0.907999C84.4262 0.547999 85.5782 0.368 86.8262 0.368C88.5062 0.368 89.7662 0.847999 90.6062 1.808C91.4462 2.744 91.8662 3.956 91.8662 5.444ZM94.8373 23.336H99.6253L103.369 5.912L104.161 3.788L102.397 5.48L98.0773 8.324L97.0693 6.488L105.961 0.368H107.185L102.289 23.336H106.969L106.429 26H94.2973L94.8373 23.336ZM138.51 14.444H127.062L124.65 26H121.77L127.098 0.799998H129.978L127.674 11.78H139.086L141.39 0.799998H144.27L138.942 26H136.062L138.51 14.444ZM145.122 20.384C145.122 18.488 145.362 16.76 145.842 15.2C146.346 13.616 147.03 12.26 147.894 11.132C148.758 10.004 149.754 9.128 150.882 8.504C152.034 7.88 153.258 7.568 154.554 7.568C155.562 7.568 156.414 7.736 157.11 8.072C157.83 8.384 158.406 8.828 158.838 9.404C159.294 9.956 159.618 10.604 159.81 11.348C160.002 12.068 160.098 12.824 160.098 13.616C160.098 15.416 159.858 17.096 159.378 18.656C158.922 20.216 158.274 21.572 157.434 22.724C156.618 23.876 155.658 24.788 154.554 25.46C153.45 26.108 152.25 26.432 150.954 26.432C149.874 26.432 148.962 26.264 148.218 25.928C147.498 25.568 146.898 25.1 146.418 24.524C145.962 23.948 145.626 23.3 145.41 22.58C145.218 21.86 145.122 21.128 145.122 20.384ZM148.002 19.736C148.002 21.152 148.266 22.244 148.794 23.012C149.322 23.756 150.162 24.128 151.314 24.128C152.106 24.128 152.85 23.852 153.546 23.3C154.266 22.724 154.89 21.956 155.418 20.996C155.97 20.036 156.402 18.944 156.714 17.72C157.05 16.472 157.218 15.176 157.218 13.832C157.218 12.608 156.99 11.648 156.534 10.952C156.102 10.232 155.262 9.872 154.014 9.872C153.222 9.872 152.466 10.148 151.746 10.7C151.026 11.228 150.378 11.948 149.802 12.86C149.25 13.772 148.806 14.828 148.47 16.028C148.158 17.204 148.002 18.44 148.002 19.736ZM166.04 21.716C165.968 22.124 165.932 22.46 165.932 22.724C165.932 23.18 166.004 23.516 166.148 23.732C166.316 23.924 166.532 24.02 166.796 24.02C167.276 24.02 167.672 23.996 167.984 23.948C168.32 23.876 168.716 23.756 169.172 23.588V25.64C168.956 25.76 168.704 25.868 168.416 25.964C168.128 26.036 167.828 26.096 167.516 26.144C167.228 26.192 166.928 26.228 166.616 26.252C166.328 26.3 166.064 26.324 165.824 26.324C164.984 26.324 164.312 26.132 163.808 25.748C163.304 25.364 163.052 24.656 163.052 23.624C163.052 23.144 163.124 22.556 163.268 21.86L167.732 0.799998H170.432L166.04 21.716ZM176.715 8H179.415L175.599 26H172.899L176.715 8ZM177.291 2.492C177.291 1.94 177.471 1.472 177.831 1.088C178.215 0.704 178.683 0.512 179.235 0.512C179.787 0.512 180.255 0.704 180.639 1.088C181.023 1.472 181.215 1.94 181.215 2.492C181.215 3.044 181.023 3.512 180.639 3.896C180.255 4.256 179.787 4.436 179.235 4.436C178.683 4.436 178.215 4.256 177.831 3.896C177.471 3.512 177.291 3.044 177.291 2.492ZM195.355 19.808C195.163 20.744 195.019 21.62 194.923 22.436C194.827 23.252 194.779 24.008 194.779 24.704C194.779 24.968 194.779 25.208 194.779 25.424C194.803 25.64 194.827 25.856 194.851 26.072H193.051L192.547 22.94H192.403C192.115 23.348 191.755 23.768 191.323 24.2C190.891 24.608 190.411 24.98 189.883 25.316C189.355 25.652 188.791 25.916 188.191 26.108C187.615 26.324 187.015 26.432 186.391 26.432C185.071 26.432 184.015 25.952 183.223 24.992C182.455 24.008 182.071 22.46 182.071 20.348C182.071 18.932 182.275 17.48 182.683 15.992C183.091 14.48 183.691 13.112 184.483 11.888C185.275 10.664 186.259 9.656 187.435 8.864C188.635 8.072 190.015 7.676 191.575 7.676C192.007 7.676 192.379 7.688 192.691 7.712C193.003 7.736 193.291 7.772 193.555 7.82C193.843 7.868 194.107 7.94 194.347 8.036C194.587 8.108 194.839 8.192 195.103 8.288L196.687 0.799998H199.387L195.355 19.808ZM187.399 24.128C187.903 24.128 188.419 23.996 188.947 23.732C189.475 23.444 189.967 23.096 190.423 22.688C190.903 22.28 191.323 21.848 191.683 21.392C192.067 20.912 192.367 20.468 192.583 20.06L194.599 10.7C194.191 10.436 193.723 10.256 193.195 10.16C192.691 10.04 192.019 9.98 191.179 9.98C190.219 9.98 189.355 10.28 188.587 10.88C187.819 11.456 187.159 12.236 186.607 13.22C186.079 14.204 185.671 15.332 185.383 16.604C185.095 17.876 184.951 19.184 184.951 20.528C184.951 21.512 185.143 22.364 185.527 23.084C185.911 23.78 186.535 24.128 187.399 24.128ZM213.492 18.908C213.3 19.796 213.168 20.696 213.096 21.608C213.024 22.52 212.988 23.372 212.988 24.164C212.988 24.524 212.988 24.872 212.988 25.208C212.988 25.52 213.012 25.808 213.06 26.072H211.044L210.54 22.94H210.396C210.108 23.348 209.748 23.768 209.316 24.2C208.908 24.608 208.452 24.98 207.948 25.316C207.444 25.652 206.904 25.916 206.328 26.108C205.752 26.324 205.14 26.432 204.492 26.432C201.636 26.432 200.208 24.572 200.208 20.852C200.208 19.316 200.4 17.756 200.784 16.172C201.192 14.588 201.804 13.16 202.62 11.888C203.46 10.616 204.528 9.572 205.824 8.756C207.144 7.94 208.728 7.532 210.576 7.532C211.248 7.532 212.064 7.616 213.024 7.784C214.008 7.928 214.92 8.132 215.76 8.396L213.492 18.908ZM205.32 24.128C205.896 24.128 206.448 23.996 206.976 23.732C207.504 23.444 207.996 23.096 208.452 22.688C208.932 22.28 209.352 21.848 209.712 21.392C210.072 20.912 210.36 20.468 210.576 20.06L212.592 10.34C211.872 10.004 210.96 9.836 209.856 9.836C208.752 9.836 207.78 10.16 206.94 10.808C206.1 11.456 205.392 12.308 204.816 13.364C204.24 14.396 203.808 15.572 203.52 16.892C203.232 18.212 203.088 19.532 203.088 20.852C203.088 21.764 203.268 22.544 203.628 23.192C203.988 23.816 204.552 24.128 205.32 24.128ZM223.115 19.664L223.295 23.12H223.475L224.843 19.628L230.819 8H233.699L225.203 24.056C224.579 25.232 223.955 26.372 223.331 27.476C222.731 28.604 222.107 29.6 221.459 30.464C220.811 31.352 220.139 32.06 219.443 32.588C218.747 33.116 218.027 33.38 217.283 33.38C216.875 33.38 216.515 33.356 216.203 33.308C215.915 33.26 215.651 33.176 215.411 33.056L216.275 30.572C216.539 30.668 216.827 30.716 217.139 30.716C217.835 30.716 218.531 30.356 219.227 29.636C219.923 28.916 220.703 27.704 221.567 26L218.471 8H221.351L223.115 19.664ZM253.623 3.464H246.171L241.419 26H238.539L243.291 3.464H235.911L236.451 0.799998H254.163L253.623 3.464ZM255.571 8H258.271L254.455 26H251.755L255.571 8ZM256.147 2.492C256.147 1.94 256.327 1.472 256.687 1.088C257.071 0.704 257.539 0.512 258.091 0.512C258.643 0.512 259.111 0.704 259.495 1.088C259.879 1.472 260.071 1.94 260.071 2.492C260.071 3.044 259.879 3.512 259.495 3.896C259.111 4.256 258.643 4.436 258.091 4.436C257.539 4.436 257.071 4.256 256.687 3.896C256.327 3.512 256.147 3.044 256.147 2.492ZM270.107 26L272.267 15.812C272.459 14.972 272.603 14.228 272.699 13.58C272.795 12.932 272.843 12.368 272.843 11.888C272.843 11.24 272.723 10.748 272.483 10.412C272.243 10.052 271.835 9.872 271.259 9.872C270.659 9.872 270.071 10.028 269.495 10.34C268.919 10.652 268.379 11.048 267.875 11.528C267.371 11.984 266.903 12.476 266.471 13.004C266.063 13.532 265.739 14.012 265.499 14.444L263.123 26H260.423L264.239 8H266.147L265.931 11.096H266.075C266.459 10.712 266.867 10.316 267.299 9.908C267.755 9.476 268.247 9.092 268.775 8.756C269.327 8.42 269.915 8.144 270.539 7.928C271.187 7.688 271.895 7.568 272.663 7.568C273.743 7.568 274.463 7.904 274.823 8.576C275.207 9.248 275.399 10.184 275.399 11.384C275.759 10.928 276.179 10.472 276.659 10.016C277.139 9.56 277.655 9.152 278.207 8.792C278.783 8.432 279.383 8.144 280.007 7.928C280.631 7.688 281.255 7.568 281.879 7.568C282.983 7.568 283.823 7.832 284.399 8.36C284.999 8.864 285.299 9.812 285.299 11.204C285.299 12.212 285.119 13.544 284.759 15.2L282.491 26H279.791L282.059 15.164C282.203 14.468 282.311 13.844 282.383 13.292C282.479 12.74 282.527 12.26 282.527 11.852C282.527 11.204 282.395 10.712 282.131 10.376C281.867 10.04 281.423 9.872 280.799 9.872C280.295 9.872 279.755 10.04 279.179 10.376C278.627 10.688 278.087 11.084 277.559 11.564C277.031 12.044 276.551 12.56 276.119 13.112C275.711 13.664 275.387 14.18 275.147 14.66L272.807 26H270.107ZM300.588 24.236C299.748 24.956 298.752 25.508 297.6 25.892C296.472 26.252 295.332 26.432 294.18 26.432C292.26 26.432 290.808 25.88 289.824 24.776C288.864 23.672 288.384 22.136 288.384 20.168C288.384 18.2 288.66 16.436 289.212 14.876C289.764 13.316 290.484 11.996 291.372 10.916C292.284 9.836 293.304 9.008 294.432 8.432C295.584 7.856 296.76 7.568 297.96 7.568C298.824 7.568 299.568 7.688 300.192 7.928C300.84 8.168 301.368 8.492 301.776 8.9C302.184 9.284 302.484 9.74 302.676 10.268C302.868 10.772 302.964 11.312 302.964 11.888C302.964 13.592 302.136 14.936 300.48 15.92C298.824 16.88 296.412 17.36 293.244 17.36C292.956 17.36 292.656 17.36 292.344 17.36C292.032 17.336 291.708 17.312 291.372 17.288C291.276 17.744 291.204 18.176 291.156 18.584C291.108 18.992 291.084 19.352 291.084 19.664C291.084 20.984 291.384 22.064 291.984 22.904C292.584 23.72 293.52 24.128 294.792 24.128C295.848 24.128 296.808 23.96 297.672 23.624C298.56 23.264 299.244 22.892 299.724 22.508L300.588 24.236ZM297.528 9.872C296.208 9.872 295.056 10.328 294.072 11.24C293.112 12.128 292.38 13.472 291.876 15.272C292.788 15.272 293.736 15.248 294.72 15.2C295.704 15.152 296.592 15.032 297.384 14.84C298.2 14.624 298.872 14.3 299.4 13.868C299.928 13.412 300.192 12.788 300.192 11.996C300.192 11.756 300.144 11.516 300.048 11.276C299.976 11.012 299.844 10.784 299.652 10.592C299.46 10.376 299.184 10.208 298.824 10.088C298.488 9.944 298.056 9.872 297.528 9.872ZM304.508 24.344C304.508 23.696 304.7 23.192 305.084 22.832C305.468 22.448 305.972 22.256 306.596 22.256C307.22 22.256 307.724 22.448 308.108 22.832C308.492 23.192 308.684 23.696 308.684 24.344C308.684 24.968 308.492 25.472 308.108 25.856C307.724 26.24 307.22 26.432 306.596 26.432C305.972 26.432 305.468 26.24 305.084 25.856C304.7 25.472 304.508 24.968 304.508 24.344ZM340.362 19.016H331.578L327.69 26H324.63L339.174 0.403999H340.506L344.142 26H341.37L340.362 19.016ZM332.982 16.424H340.074L339.03 8.756L338.958 4.94H338.922L337.302 8.828L332.982 16.424ZM350.645 21.716C350.573 22.124 350.537 22.46 350.537 22.724C350.537 23.18 350.609 23.516 350.753 23.732C350.921 23.924 351.137 24.02 351.401 24.02C351.881 24.02 352.277 23.996 352.589 23.948C352.925 23.876 353.321 23.756 353.777 23.588V25.64C353.561 25.76 353.309 25.868 353.021 25.964C352.733 26.036 352.433 26.096 352.121 26.144C351.833 26.192 351.533 26.228 351.221 26.252C350.933 26.3 350.669 26.324 350.429 26.324C349.589 26.324 348.917 26.132 348.413 25.748C347.909 25.364 347.657 24.656 347.657 23.624C347.657 23.144 347.729 22.556 347.873 21.86L352.337 0.799998H355.037L350.645 21.716ZM360.349 21.716C360.277 22.124 360.241 22.46 360.241 22.724C360.241 23.18 360.313 23.516 360.457 23.732C360.625 23.924 360.841 24.02 361.105 24.02C361.585 24.02 361.981 23.996 362.293 23.948C362.629 23.876 363.025 23.756 363.481 23.588V25.64C363.265 25.76 363.013 25.868 362.725 25.964C362.437 26.036 362.137 26.096 361.825 26.144C361.537 26.192 361.237 26.228 360.925 26.252C360.637 26.3 360.373 26.324 360.133 26.324C359.293 26.324 358.621 26.132 358.117 25.748C357.613 25.364 357.361 24.656 357.361 23.624C357.361 23.144 357.433 22.556 357.577 21.86L362.041 0.799998H364.741L360.349 21.716ZM387.893 10.376C387.677 10.328 387.449 10.292 387.209 10.268C386.993 10.244 386.789 10.232 386.597 10.232C385.373 10.232 384.317 10.616 383.429 11.384C382.541 12.152 381.845 13.088 381.341 14.192L378.857 26H376.157L379.973 8H381.845V11.096H381.989C382.277 10.64 382.589 10.22 382.925 9.836C383.261 9.428 383.633 9.068 384.041 8.756C384.449 8.444 384.893 8.204 385.373 8.036C385.853 7.844 386.381 7.748 386.957 7.748C387.485 7.748 388.037 7.832 388.613 8L387.893 10.376ZM392.399 8H395.099L391.283 26H388.583L392.399 8ZM392.975 2.492C392.975 1.94 393.155 1.472 393.515 1.088C393.899 0.704 394.367 0.512 394.919 0.512C395.471 0.512 395.939 0.704 396.323 1.088C396.707 1.472 396.899 1.94 396.899 2.492C396.899 3.044 396.707 3.512 396.323 3.896C395.939 4.256 395.471 4.436 394.919 4.436C394.367 4.436 393.899 4.256 393.515 3.896C393.155 3.512 392.975 3.044 392.975 2.492ZM409.815 26.828C409.311 29.18 408.435 30.896 407.187 31.976C405.963 33.08 404.331 33.632 402.291 33.632C400.731 33.632 399.447 33.428 398.439 33.02C397.431 32.636 396.663 32.3 396.135 32.012L397.323 29.996C397.515 30.092 397.743 30.212 398.007 30.356C398.295 30.524 398.631 30.68 399.015 30.824C399.423 30.968 399.903 31.088 400.455 31.184C401.031 31.28 401.703 31.328 402.471 31.328C403.671 31.328 404.679 30.896 405.495 30.032C406.311 29.168 406.923 27.812 407.331 25.964L407.979 22.94H407.835C407.499 23.396 407.127 23.828 406.719 24.236C406.335 24.644 405.903 25.016 405.423 25.352C404.943 25.664 404.415 25.916 403.839 26.108C403.287 26.3 402.675 26.396 402.003 26.396C400.707 26.396 399.663 25.928 398.871 24.992C398.079 24.056 397.683 22.724 397.683 20.996C397.683 19.388 397.899 17.792 398.331 16.208C398.787 14.624 399.447 13.208 400.311 11.96C401.199 10.688 402.279 9.656 403.551 8.864C404.847 8.072 406.335 7.676 408.015 7.676C409.311 7.676 410.403 7.784 411.291 8C412.179 8.216 412.959 8.48 413.631 8.792L409.815 26.828ZM403.011 24.092C403.611 24.092 404.199 23.936 404.775 23.624C405.375 23.312 405.915 22.916 406.395 22.436C406.899 21.932 407.343 21.392 407.727 20.816C408.135 20.24 408.471 19.7 408.735 19.196L410.571 10.52C410.187 10.304 409.719 10.16 409.167 10.088C408.615 10.016 408.051 9.98 407.475 9.98C406.491 9.98 405.579 10.268 404.739 10.844C403.899 11.42 403.167 12.2 402.543 13.184C401.943 14.144 401.463 15.26 401.103 16.532C400.743 17.804 400.563 19.136 400.563 20.528C400.563 21.632 400.779 22.508 401.211 23.156C401.667 23.78 402.267 24.092 403.011 24.092ZM426.407 26L428.567 15.74C428.711 15.02 428.831 14.384 428.927 13.832C429.023 13.256 429.071 12.752 429.071 12.32C429.071 11.432 428.891 10.808 428.531 10.448C428.171 10.064 427.607 9.872 426.839 9.872C426.215 9.872 425.579 10.04 424.931 10.376C424.283 10.688 423.659 11.096 423.059 11.6C422.459 12.104 421.919 12.668 421.439 13.292C420.983 13.916 420.635 14.516 420.395 15.092L418.127 26H415.427L420.755 0.799998H423.455L421.223 11.096H421.367C421.679 10.712 422.051 10.316 422.483 9.908C422.939 9.5 423.455 9.128 424.031 8.792C424.607 8.432 425.231 8.144 425.903 7.928C426.575 7.688 427.307 7.568 428.099 7.568C429.275 7.568 430.199 7.856 430.871 8.432C431.543 8.984 431.879 10.004 431.879 11.492C431.879 12.5 431.723 13.712 431.411 15.128L429.107 26H426.407ZM435.742 8H438.406L439.162 4.436L442.042 3.608L441.106 8H445.822L445.282 10.304H440.602L438.334 21.176C438.286 21.464 438.238 21.728 438.19 21.968C438.166 22.208 438.154 22.424 438.154 22.616C438.154 23.192 438.286 23.588 438.55 23.804C438.814 24.02 439.21 24.128 439.738 24.128C440.314 24.128 440.842 24.056 441.322 23.912C441.802 23.768 442.282 23.552 442.762 23.264V25.46C442.258 25.748 441.61 25.976 440.818 26.144C440.026 26.336 439.27 26.432 438.55 26.432C436.366 26.432 435.274 25.436 435.274 23.444C435.274 23.036 435.334 22.532 435.454 21.932L437.902 10.304H435.202L435.742 8ZM453.795 20.924C453.795 20.3 453.639 19.772 453.327 19.34C453.015 18.908 452.619 18.524 452.139 18.188C451.659 17.828 451.143 17.48 450.591 17.144C450.039 16.808 449.523 16.436 449.043 16.028C448.563 15.596 448.167 15.104 447.855 14.552C447.543 13.976 447.387 13.268 447.387 12.428C447.387 11.756 447.543 11.132 447.855 10.556C448.191 9.956 448.635 9.44 449.187 9.008C449.763 8.552 450.435 8.204 451.203 7.964C451.995 7.7 452.847 7.568 453.759 7.568C455.031 7.568 456.015 7.652 456.711 7.82C457.407 7.988 458.031 8.228 458.583 8.54L457.683 10.7C456.723 10.148 455.415 9.872 453.759 9.872C452.751 9.872 451.911 10.088 451.239 10.52C450.591 10.928 450.267 11.564 450.267 12.428C450.267 12.932 450.423 13.376 450.735 13.76C451.047 14.12 451.443 14.468 451.923 14.804C452.403 15.14 452.919 15.488 453.471 15.848C454.023 16.184 454.539 16.58 455.019 17.036C455.499 17.468 455.895 17.984 456.207 18.584C456.519 19.184 456.675 19.892 456.675 20.708C456.675 22.58 456.039 24.008 454.767 24.992C453.519 25.952 451.839 26.432 449.727 26.432C448.647 26.432 447.651 26.324 446.739 26.108C445.851 25.892 445.131 25.616 444.579 25.28L445.587 23.012C446.067 23.324 446.691 23.588 447.459 23.804C448.251 24.02 449.067 24.128 449.907 24.128C451.083 24.128 452.019 23.876 452.715 23.372C453.435 22.844 453.795 22.028 453.795 20.924ZM481.444 10.376C481.228 10.328 481 10.292 480.76 10.268C480.544 10.244 480.34 10.232 480.148 10.232C478.924 10.232 477.868 10.616 476.98 11.384C476.092 12.152 475.396 13.088 474.892 14.192L472.408 26H469.708L473.524 8H475.396V11.096H475.54C475.828 10.64 476.14 10.22 476.476 9.836C476.812 9.428 477.184 9.068 477.592 8.756C478 8.444 478.444 8.204 478.924 8.036C479.404 7.844 479.932 7.748 480.508 7.748C481.036 7.748 481.588 7.832 482.164 8L481.444 10.376ZM494.193 24.236C493.353 24.956 492.357 25.508 491.205 25.892C490.077 26.252 488.937 26.432 487.785 26.432C485.865 26.432 484.413 25.88 483.429 24.776C482.469 23.672 481.989 22.136 481.989 20.168C481.989 18.2 482.265 16.436 482.817 14.876C483.369 13.316 484.089 11.996 484.977 10.916C485.889 9.836 486.909 9.008 488.037 8.432C489.189 7.856 490.365 7.568 491.565 7.568C492.429 7.568 493.173 7.688 493.797 7.928C494.445 8.168 494.973 8.492 495.381 8.9C495.789 9.284 496.089 9.74 496.281 10.268C496.473 10.772 496.569 11.312 496.569 11.888C496.569 13.592 495.741 14.936 494.085 15.92C492.429 16.88 490.017 17.36 486.849 17.36C486.561 17.36 486.261 17.36 485.949 17.36C485.637 17.336 485.313 17.312 484.977 17.288C484.881 17.744 484.809 18.176 484.761 18.584C484.713 18.992 484.689 19.352 484.689 19.664C484.689 20.984 484.989 22.064 485.589 22.904C486.189 23.72 487.125 24.128 488.397 24.128C489.453 24.128 490.413 23.96 491.277 23.624C492.165 23.264 492.849 22.892 493.329 22.508L494.193 24.236ZM491.133 9.872C489.813 9.872 488.661 10.328 487.677 11.24C486.717 12.128 485.985 13.472 485.481 15.272C486.393 15.272 487.341 15.248 488.325 15.2C489.309 15.152 490.197 15.032 490.989 14.84C491.805 14.624 492.477 14.3 493.005 13.868C493.533 13.412 493.797 12.788 493.797 11.996C493.797 11.756 493.749 11.516 493.653 11.276C493.581 11.012 493.449 10.784 493.257 10.592C493.065 10.376 492.789 10.208 492.429 10.088C492.093 9.944 491.661 9.872 491.133 9.872ZM506.178 20.924C506.178 20.3 506.022 19.772 505.71 19.34C505.398 18.908 505.002 18.524 504.522 18.188C504.042 17.828 503.526 17.48 502.974 17.144C502.422 16.808 501.906 16.436 501.426 16.028C500.946 15.596 500.55 15.104 500.238 14.552C499.926 13.976 499.77 13.268 499.77 12.428C499.77 11.756 499.926 11.132 500.238 10.556C500.574 9.956 501.018 9.44 501.57 9.008C502.146 8.552 502.818 8.204 503.586 7.964C504.378 7.7 505.23 7.568 506.142 7.568C507.414 7.568 508.398 7.652 509.094 7.82C509.79 7.988 510.414 8.228 510.966 8.54L510.066 10.7C509.106 10.148 507.798 9.872 506.142 9.872C505.134 9.872 504.294 10.088 503.622 10.52C502.974 10.928 502.65 11.564 502.65 12.428C502.65 12.932 502.806 13.376 503.118 13.76C503.43 14.12 503.826 14.468 504.306 14.804C504.786 15.14 505.302 15.488 505.854 15.848C506.406 16.184 506.922 16.58 507.402 17.036C507.882 17.468 508.278 17.984 508.59 18.584C508.902 19.184 509.058 19.892 509.058 20.708C509.058 22.58 508.422 24.008 507.15 24.992C505.902 25.952 504.222 26.432 502.11 26.432C501.03 26.432 500.034 26.324 499.122 26.108C498.234 25.892 497.514 25.616 496.962 25.28L497.97 23.012C498.45 23.324 499.074 23.588 499.842 23.804C500.634 24.02 501.45 24.128 502.29 24.128C503.466 24.128 504.402 23.876 505.098 23.372C505.818 22.844 506.178 22.028 506.178 20.924ZM525.201 24.236C524.361 24.956 523.365 25.508 522.213 25.892C521.085 26.252 519.945 26.432 518.793 26.432C516.873 26.432 515.421 25.88 514.437 24.776C513.477 23.672 512.997 22.136 512.997 20.168C512.997 18.2 513.273 16.436 513.825 14.876C514.377 13.316 515.097 11.996 515.985 10.916C516.897 9.836 517.917 9.008 519.045 8.432C520.197 7.856 521.373 7.568 522.573 7.568C523.437 7.568 524.181 7.688 524.805 7.928C525.453 8.168 525.981 8.492 526.389 8.9C526.797 9.284 527.097 9.74 527.289 10.268C527.481 10.772 527.577 11.312 527.577 11.888C527.577 13.592 526.749 14.936 525.093 15.92C523.437 16.88 521.025 17.36 517.857 17.36C517.569 17.36 517.269 17.36 516.957 17.36C516.645 17.336 516.321 17.312 515.985 17.288C515.889 17.744 515.817 18.176 515.769 18.584C515.721 18.992 515.697 19.352 515.697 19.664C515.697 20.984 515.997 22.064 516.597 22.904C517.197 23.72 518.133 24.128 519.405 24.128C520.461 24.128 521.421 23.96 522.285 23.624C523.173 23.264 523.857 22.892 524.337 22.508L525.201 24.236ZM522.141 9.872C520.821 9.872 519.669 10.328 518.685 11.24C517.725 12.128 516.993 13.472 516.489 15.272C517.401 15.272 518.349 15.248 519.333 15.2C520.317 15.152 521.205 15.032 521.997 14.84C522.813 14.624 523.485 14.3 524.013 13.868C524.541 13.412 524.805 12.788 524.805 11.996C524.805 11.756 524.757 11.516 524.661 11.276C524.589 11.012 524.457 10.784 524.265 10.592C524.073 10.376 523.797 10.208 523.437 10.088C523.101 9.944 522.669 9.872 522.141 9.872ZM540.893 10.376C540.677 10.328 540.449 10.292 540.209 10.268C539.993 10.244 539.789 10.232 539.597 10.232C538.373 10.232 537.317 10.616 536.429 11.384C535.541 12.152 534.845 13.088 534.341 14.192L531.857 26H529.157L532.973 8H534.845V11.096H534.989C535.277 10.64 535.589 10.22 535.925 9.836C536.261 9.428 536.633 9.068 537.041 8.756C537.449 8.444 537.893 8.204 538.373 8.036C538.853 7.844 539.381 7.748 539.957 7.748C540.485 7.748 541.037 7.832 541.613 8L540.893 10.376ZM546.551 18.548L546.875 21.968H546.947L548.495 18.476L554.579 8H557.675L546.443 26.396H545.291L541.799 8H544.679L546.551 18.548ZM569.111 24.236C568.271 24.956 567.275 25.508 566.123 25.892C564.995 26.252 563.855 26.432 562.703 26.432C560.783 26.432 559.331 25.88 558.347 24.776C557.387 23.672 556.907 22.136 556.907 20.168C556.907 18.2 557.183 16.436 557.735 14.876C558.287 13.316 559.007 11.996 559.895 10.916C560.807 9.836 561.827 9.008 562.955 8.432C564.107 7.856 565.283 7.568 566.483 7.568C567.347 7.568 568.091 7.688 568.715 7.928C569.363 8.168 569.891 8.492 570.299 8.9C570.707 9.284 571.007 9.74 571.199 10.268C571.391 10.772 571.487 11.312 571.487 11.888C571.487 13.592 570.659 14.936 569.003 15.92C567.347 16.88 564.935 17.36 561.767 17.36C561.479 17.36 561.179 17.36 560.867 17.36C560.555 17.336 560.231 17.312 559.895 17.288C559.799 17.744 559.727 18.176 559.679 18.584C559.631 18.992 559.607 19.352 559.607 19.664C559.607 20.984 559.907 22.064 560.507 22.904C561.107 23.72 562.043 24.128 563.315 24.128C564.371 24.128 565.331 23.96 566.195 23.624C567.083 23.264 567.767 22.892 568.247 22.508L569.111 24.236ZM566.051 9.872C564.731 9.872 563.579 10.328 562.595 11.24C561.635 12.128 560.903 13.472 560.399 15.272C561.311 15.272 562.259 15.248 563.243 15.2C564.227 15.152 565.115 15.032 565.907 14.84C566.723 14.624 567.395 14.3 567.923 13.868C568.451 13.412 568.715 12.788 568.715 11.996C568.715 11.756 568.667 11.516 568.571 11.276C568.499 11.012 568.367 10.784 568.175 10.592C567.983 10.376 567.707 10.208 567.347 10.088C567.011 9.944 566.579 9.872 566.051 9.872ZM586.855 19.808C586.663 20.744 586.519 21.62 586.423 22.436C586.327 23.252 586.279 24.008 586.279 24.704C586.279 24.968 586.279 25.208 586.279 25.424C586.303 25.64 586.327 25.856 586.351 26.072H584.551L584.047 22.94H583.903C583.615 23.348 583.255 23.768 582.823 24.2C582.391 24.608 581.911 24.98 581.383 25.316C580.855 25.652 580.291 25.916 579.691 26.108C579.115 26.324 578.515 26.432 577.891 26.432C576.571 26.432 575.515 25.952 574.723 24.992C573.955 24.008 573.571 22.46 573.571 20.348C573.571 18.932 573.775 17.48 574.183 15.992C574.591 14.48 575.191 13.112 575.983 11.888C576.775 10.664 577.759 9.656 578.935 8.864C580.135 8.072 581.515 7.676 583.075 7.676C583.507 7.676 583.879 7.688 584.191 7.712C584.503 7.736 584.791 7.772 585.055 7.82C585.343 7.868 585.607 7.94 585.847 8.036C586.087 8.108 586.339 8.192 586.603 8.288L588.187 0.799998H590.887L586.855 19.808ZM578.899 24.128C579.403 24.128 579.919 23.996 580.447 23.732C580.975 23.444 581.467 23.096 581.923 22.688C582.403 22.28 582.823 21.848 583.183 21.392C583.567 20.912 583.867 20.468 584.083 20.06L586.099 10.7C585.691 10.436 585.223 10.256 584.695 10.16C584.191 10.04 583.519 9.98 582.679 9.98C581.719 9.98 580.855 10.28 580.087 10.88C579.319 11.456 578.659 12.236 578.107 13.22C577.579 14.204 577.171 15.332 576.883 16.604C576.595 17.876 576.451 19.184 576.451 20.528C576.451 21.512 576.643 22.364 577.027 23.084C577.411 23.78 578.035 24.128 578.899 24.128ZM591.348 24.344C591.348 23.696 591.54 23.192 591.924 22.832C592.308 22.448 592.812 22.256 593.436 22.256C594.06 22.256 594.564 22.448 594.948 22.832C595.332 23.192 595.524 23.696 595.524 24.344C595.524 24.968 595.332 25.472 594.948 25.856C594.564 26.24 594.06 26.432 593.436 26.432C592.812 26.432 592.308 26.24 591.924 25.856C591.54 25.472 591.348 24.968 591.348 24.344Z" fill="#EEECF1"/>
</svg>
